<?xml version="1.0" encoding="utf-8"?>
<!-- Generator: Adobe Illustrator 16.2.1, SVG Export Plug-In . SVG Version: 6.00 Build 0)  -->
<!DOCTYPE svg PUBLIC "-//W3C//DTD SVG 1.1//EN" "http://www.w3.org/Graphics/SVG/1.1/DTD/svg11.dtd">
<svg version="1.1" id="Layer_1" xmlns="http://www.w3.org/2000/svg" xmlns:xlink="http://www.w3.org/1999/xlink" x="0px" y="0px"
	 width="500px" height="400px" viewBox="0 0 500 400" enable-background="new 0 0 500 400" xml:space="preserve">
<g>
	<path fill="#5FCF80" d="M219.721,399.265c0,0-2.303-167.397,3.844-215.777c0,0,12.665-182.752,276.436-182.752
		c0,0-19.582,263.768-216.545,244.185c0,0,29.945-135.915,140.523-194.656c0,0-170.473,36.856-170.473,209.631v42.616
		c0,0-5.758,86.388,29.949,96.754H219.721z"/>
	<path fill="#5FCF80" d="M238.83,304.86c0,0,27.313-250.094-238.83-212.527c0,0,42.262,232.819,182.326,168.212
		c0,0-40.723-92.498-113.166-132.051c0,0,139.342,33.922,150.336,184.411L238.83,304.86z"/>
</g>
</svg>
